<?xml version="1.0" standalone="no"?>
<!DOCTYPE svg PUBLIC "-//W3C//DTD SVG 20010904//EN"
 "http://www.w3.org/TR/2001/REC-SVG-20010904/DTD/svg10.dtd">
<svg version="1.0" xmlns="http://www.w3.org/2000/svg"
 width="150.000000pt" height="150.000000pt" viewBox="0 0 150.000000 150.000000"
 preserveAspectRatio="xMidYMid meet">

<g transform="translate(0.000000,150.000000) scale(0.100000,-0.100000)"
fill="#000000" stroke="none">
<path d="M638 1480 c-271 -49 -475 -213 -575 -460 -104 -258 -47 -564 144
-770 267 -289 701 -320 1009 -72 192 155 300 427 264 665 -46 307 -242 532
-536 618 -78 22 -235 32 -306 19z m286 -30 c487 -124 702 -691 420 -1111 -85
-126 -203 -216 -357 -272 -69 -25 -101 -31 -204 -35 -152 -6 -239 12 -362 74
-360 180 -501 626 -310 982 128 239 362 380 635 381 69 1 125 -5 178 -19z"/>
<path d="M596 1293 c-3 -42 -6 -93 -6 -114 l0 -37 -95 -22 c-88 -20 -95 -23
-95 -46 0 -22 -3 -24 -27 -18 -16 4 -30 9 -33 11 -2 2 -6 33 -8 69 -4 60 -6
65 -26 62 -18 -3 -21 -11 -24 -60 -3 -50 -6 -58 -22 -58 -19 0 -20 -8 -20
-160 l0 -160 138 0 c75 -1 180 -1 232 -1 52 0 101 0 108 0 9 1 12 49 12 206
l0 205 -30 0 c-30 0 -30 1 -30 54 0 29 -3 74 -6 100 -6 42 -9 46 -34 46 -27 0
-27 -2 -34 -77z m53 -222 c33 -21 -45 -144 -109 -171 -29 -12 -30 -14 -43
-100 -3 -15 -5 -8 -6 17 0 24 8 61 21 90 32 69 32 73 5 30 -28 -44 -40 -31
-27 28 17 73 111 136 159 106z"/>
<path d="M240 677 c0 -51 13 -67 56 -67 40 0 57 -16 79 -75 l18 -45 -27 -39
c-33 -47 -29 -59 40 -120 52 -45 82 -51 109 -21 23 25 41 25 98 1 45 -20 57
-35 57 -76 0 -35 36 -55 97 -55 76 0 103 13 103 49 0 47 10 62 57 82 57 24 85
24 108 -1 30 -33 58 -25 114 34 28 30 51 60 51 66 0 7 -11 25 -25 42 -31 36
-31 40 0 106 22 48 27 52 59 52 45 0 66 22 66 71 l0 39 -124 0 -124 0 -7 -47
c-12 -82 -57 -149 -133 -198 -56 -37 -164 -46 -240 -21 -89 30 -165 124 -179
221 l-6 45 -123 0 -124 0 0 -43z m302 -199 c-4 -17 -2 -20 12 -15 14 5 15 3 6
-13 -16 -30 -33 -37 -25 -10 6 20 4 22 -14 17 -25 -6 -27 0 -4 25 22 24 32 23
25 -4z m461 1 c12 -7 24 -13 25 -15 2 -1 -6 -12 -17 -23 -20 -20 -21 -20 -31
-1 -11 20 -14 50 -4 50 3 0 15 -5 27 -11z m-418 -53 c-10 -14 -22 -26 -27 -26
-10 0 -3 16 20 43 22 25 27 13 7 -17z m386 -8 c17 -32 -6 -19 -26 15 -17 28
-17 30 -1 18 9 -8 22 -23 27 -33z m-341 1 c0 -18 2 -19 15 -9 9 7 18 10 21 8
8 -9 -7 -58 -18 -58 -6 0 -7 8 -3 18 5 14 4 15 -6 5 -18 -18 -32 -16 -25 2 3
8 1 15 -4 15 -6 0 -10 -4 -10 -10 0 -5 -5 -10 -10 -10 -6 0 -4 13 5 30 18 35
35 39 35 9z m310 -19 c5 0 10 -5 10 -11 0 -6 -9 -8 -20 -4 -14 5 -20 2 -20 -9
0 -27 -17 -18 -29 15 -9 26 -8 30 3 26 8 -3 17 2 21 11 6 15 8 14 16 -5 4 -13
13 -23 19 -23z m-80 10 c0 -5 -7 -10 -15 -10 -8 0 -15 -5 -15 -11 0 -6 8 -8
18 -5 14 5 14 4 -2 -9 -19 -15 -19 -15 5 -16 22 0 23 -1 4 -9 -31 -13 -32 -12
-37 21 -4 29 5 40 40 48 1 1 2 -3 2 -9z m-128 -39 c4 -28 3 -30 -26 -24 -40 8
-40 6 -15 37 24 31 35 27 41 -13z m61 22 c-7 -2 -13 -16 -13 -29 0 -13 -4 -24
-9 -24 -5 0 -8 8 -6 18 1 9 -2 23 -8 30 -7 9 -2 12 19 11 16 0 23 -3 17 -6z"/>
<path d="M672 500 c0 -14 2 -19 5 -12 2 6 2 18 0 25 -3 6 -5 1 -5 -13z"/>
<path d="M712 500 c0 -14 2 -19 5 -12 2 6 2 18 0 25 -3 6 -5 1 -5 -13z"/>
<path d="M790 505 c0 -13 7 -21 18 -22 10 -1 19 5 19 12 0 8 -5 11 -10 8 -5
-3 -13 1 -18 8 -7 11 -9 9 -9 -6z"/>
<path d="M746 495 c-3 -8 -1 -15 4 -15 6 0 10 7 10 15 0 8 -2 15 -4 15 -2 0
-6 -7 -10 -15z"/>
<path d="M856 495 c4 -8 10 -15 15 -15 4 0 6 7 3 15 -4 8 -10 15 -15 15 -4 0
-6 -7 -3 -15z"/>
</g>
</svg>
